<?xml version="1.0" encoding="utf-8"?>
<!-- Generator: Adobe Illustrator 24.2.3, SVG Export Plug-In . SVG Version: 6.00 Build 0)  -->
<svg version="1.1" id="Layer_1" xmlns="http://www.w3.org/2000/svg" xmlns:xlink="http://www.w3.org/1999/xlink" x="0px" y="0px"
	 viewBox="0 0 390 430" style="enable-background:new 0 0 390 430;" xml:space="preserve">
<style type="text/css">
	.st0{fill:#FFFFFF;}
</style>
<g>
	<path class="st0" d="M144.3,78c0.2,0,0.8-0.1,1,0c0.3,0.8,0.7,16.6,0.5,18.4l0,0.1l0.1,0c0,0,0,0,0.1,0c0.1,0,0.3,0,0.5-0.2
		c0.5-0.4,0.8-1.5,0.8-3.1c0-1,0.1-2.6,0.2-4.4c0.2-5.3,0.4-9.5-0.2-10.3c0-0.1,0-0.4,0.2-0.6c0.2-0.3,0.6-0.5,1.3-0.6
		c0.1,0,14-1.3,16.7,3.6c0,0,0.1,0.4-0.2,0.8c-0.7,1-3.5,2.7-13.8,2.8c-0.2-0.1-1.1-0.7-2,0c-0.3,0.3-0.5,0.6-0.5,0.9
		c0,0.4,0.5,0.7,0.5,0.7c0,0,1,0.5,1.7,0.4c0.8,0.9,10.7,12.5,19.8,9.1c0.1,0,1.8-0.6,2.4-2.4l0.1-0.4l-0.3,0.3c0,0-2.2,1.6-5.6,1.6
		c-0.1,0-0.1,0-0.2,0c-3.3-0.1-8.3-1.6-14.1-8.5c1.9,0,11.8-0.1,14-4.9l0,0l0,0c0-0.2-0.3-5.1-13.2-5.6c-0.1,0-6.9-0.1-9.1,0.2
		c-0.2,0-2.7-0.2-3.4,1.5l0,0c0,0,0,0.4,0.3,0.6C142.1,78.4,143,78.4,144.3,78z"/>
	<path class="st0" d="M203.1,92.1c0,0,0,7.9,1.1,10.2c0.1,0.2,0.2,0.5,0.2,0.7c0.2,1.8,0.9,1.1,0.9,1.1s-0.4-9.9,0-11.3
		c0.1-0.3,1.7-6.3-0.2-6.1c-1.9,0.2-2.8,3.8-2.8,3.8s-18.8,6.7-19.9-0.5c-1.1-7.2,17-15.7,20.5-12.7c0.5,0.5,1.7-0.3,1.7-0.5
		c0-0.2-0.2-0.7-0.2-0.7s-1.4-3.1-8.2,0c0,0-16.5,5.3-15.3,14.9C182.2,100.4,203.1,92.1,203.1,92.1z"/>
	<path class="st0" d="M200.9,260.3c-1,0-1.8,0.4-2.4,1.2c-0.6,0.8-0.9,2.1-0.9,3.7c0,1.4,0.3,2.6,0.9,3.4s1.4,1.2,2.4,1.2
		c1.3,0,2.2-0.5,2.8-1.5v-6.7C203.1,260.8,202.2,260.3,200.9,260.3z"/>
	<path class="st0" d="M166.1,313.8c-2.8,0-4.9,1.2-6.2,3.5c-1.3,2.3-2,5.9-2.1,10.6V346c0,5.3,0.7,9.2,2,11.6
		c1.3,2.5,3.4,3.7,6.3,3.7c2.8,0,4.9-1.2,6.2-3.6c1.3-2.4,2-6.1,2-11.2V329c0-5.1-0.7-8.9-2-11.4C171.1,315.1,169,313.8,166.1,313.8
		z"/>
	<path class="st0" d="M182.9,63.6l0,0.1C183,63.7,183,63.7,182.9,63.6z"/>
	<path class="st0" d="M221.5,74.9l4.2,0.3c3.4,9.6,1.6,10.4,1.6,10.4s-0.5,0-1,0.4c-1.4,1,1.1,1.4,1.1,1.4l0.6,7.9l-1.3,1
		c0,0-0.4,0.6-0.2,0.9c0.4,0.7,2.4-0.3,2.4-0.3s0,0,1.2-0.1c5-0.6,18.4-2.6,18-6.6c-0.3-3.4-17-3.9-17.8-3.9c-0.8,0-0.3-0.7-0.3-0.7
		s13.3-4.4,12.7-6.7c-1.2-4-20.9-5.2-20.9-5.2C220.6,74.2,221.5,74.9,221.5,74.9z M245.3,90.3c1.3,2.4-13.9,4.8-15.1,4.6
		s-0.5-7.2-0.5-7.2S244,87.9,245.3,90.3z M239.6,78.8c0.3,1.8-9.9,5.3-10.1,4.7c-0.2-0.5-0.8-7.2-0.8-7.2S239.4,76.9,239.6,78.8z"/>
	<path class="st0" d="M191.4,124.9c-0.1,0-0.1,0.2-0.1,0.3c0,0.1,0,0.2,0.1,0.2c0.1,0,0.1-0.1,0.1-0.3
		C191.5,125,191.6,124.8,191.4,124.9z"/>
	<path class="st0" d="M132.2,260.3c-1,0-1.8,0.4-2.4,1.2s-0.8,2.1-0.8,3.7c0,1.5,0.3,2.7,0.8,3.5c0.6,0.8,1.4,1.2,2.4,1.2
		c1,0,1.8-0.4,2.4-1.2c0.6-0.8,0.9-2,0.9-3.8c0-1.5-0.3-2.6-0.9-3.4C134.1,260.7,133.2,260.3,132.2,260.3z"/>
	<path class="st0" d="M0,0v430h390V0H0z M217.5,76.3c0-2.4,0-4.7,0-7.1c0-0.3,0.1-0.5,0.3-0.6c0.4-0.2,0.5-0.6,0.5-1
		c0-1.2,0-2.4,0-3.6c0-1.1,0-2.3,0-3.4c0-1.1,0-2.2,0-3.3c0-0.6,0-1.2,0-1.8c0-0.2,0-0.4,0.2-0.5c0.4-0.3,0.4-0.7,0.4-1.1
		c0-0.6,0-1.3,0-1.9c0-0.5,0.1-0.9,0.5-1.2c0.2-0.1,0.3-0.5,0.6-0.4c0.3,0.1,0.3,0.4,0.4,0.7c0.1,0.7,0,1.4,0,2.1
		c0,0.4,0,0.8,0.1,1.1c0,0.2,0.1,0.4,0.3,0.5c0.3,0.1,0.4,0.4,0.3,0.7c0,0.5,0,1,0,1.5c0,0.5,0.1,0.6,0.3,0.6
		c-0.1-1.1-0.3-3.7-0.3-7.9c0-3.7,0.7-3.4,1.2-2.6c0.2,0,0.3,0,0.5,0c0.2,0,0.3,0.1,0.3,0.3c0,0.2,0.1,0.4,0,0.6
		c-0.1,0.6,0.4,0.9,0.6,1.3c0,0.1,0.1,0.1,0.1,0.2c-0.1,0.6,0,1.2,0,1.9c0,0.3,0,0.5,0,0.8c0,0.3,0.2,0.3,0.4,0.2
		c0.6-0.1,0.7-0.1,1,0.4c0.4-0.5,0.8-1,1.6-1.1c0.3,0,0.4-0.2,0.4-0.5c0-0.5,0-1,0.1-1.6c0.1-0.3,0.2-0.5,0.5-0.5
		c0.3,0,0.4,0.2,0.5,0.5c0.2,0.7,0,1.4,0.1,2.1c0,0.2,0.1,0.4,0.4,0.4c0.2,0,0.4-0.1,0.4-0.3c0-0.5,0-1,0-1.5c0-0.8,0.4-1.3,1-1.7
		c0.2-0.1,0.4,0,0.5,0.1c0.1,0.1,0.2,0.2,0.3,0.3c0.2,0.1,0.4,0.2,0.6,0.1c0.2-0.1,0.1-0.3,0.1-0.5c0-0.9,0-1.9,0.2-2.8
		c0-0.3,0.2-0.5,0.4-0.5c0.2,0,0.4,0.2,0.4,0.5c0,0.1,0,0.2,0,0.3c0.1,0.5,0.2,0.6,0.7,0.4c0.3-0.1,0.6,0.1,0.6,0.4
		c0,0.8,0,1.6,0,2.4c0,0.6,0,1.1,0.3,1.7c0-0.5,0.4-0.7,0.6-1c0.2-0.3,0.1-0.7,0.2-1c0.1-0.3,0.2-0.4,0.4-0.6
		c0.1-0.1,0.5,0.1,0.6,0.4c0.1,0.2,0.1,0.5,0.2,0.7c0,0.2,0.1,0.2,0.3,0.2c0.6-0.1,0.6-0.1,0.7-0.8c0-0.2,0.1-0.4,0-0.7
		c0-0.2,0.2-0.4,0.4-0.4c0.2,0,0.5,0.1,0.4,0.4c0,0.4,0.2,0.7,0.2,1.2c0.3-0.8,0.2-1.6,0.3-2.4c0-0.3,0.1-0.5,0.4-0.5
		c0.2,0,0.4,0.2,0.4,0.4c0,1,0.2,2.1,0.2,3.1c0,0.1,0,0.2,0.1,0.3c0.3,0.4,0.6,0.9,0.6,1.5c0.2-0.5,0.3-1,0.3-1.5
		c0-0.3,0-0.6,0.1-0.9c0-0.2,0.2-0.4,0.4-0.3c0.2,0,0.4,0.2,0.4,0.5c0,0.5,0,1,0,1.5c0,0.7,0,1.3,0.6,1.9c0.3,0.3,0.3,0.8,0.3,1.2
		c0,0.5,0,1,0,1.4c0.7-0.3,0.9-0.8,0.9-1.5c0-0.4,0-0.8,0.1-1.3c0.1-0.4,0.2-0.6,0.6-0.4c0.4,0.2,0.7-0.1,1.1,0c0.2,0,0.5,0,0.4,0.4
		c-0.1,0.3,0.2,0.6,0.2,1c0,0.2,0.4,0.3,0.6,0.5c0.1,0,0.1-0.1,0.1-0.2c0-0.2,0-0.4,0-0.7l0,0c-0.7-6.5,1.8-3.1,1.8-3.1l0,0
		c0.3,0.2,0.5,0.5,0.5,0.9c0,0.7,0,1.4,0,2c0.1,1.4,0,2.8,0.2,4.2c0.1,0.9,0,1.8,0,2.7c0,0.1,0,0.2,0.1,0.4c0-1,0-1.9,0-2.9
		c0-0.7,0.2-1.5,0.2-2.2c0-0.4,0-0.7,0-1.1c0-0.3,0.2-0.6,0.4-0.5c0.3,0.1,0.4,0.3,0.4,0.5c0,0.7,0,1.4,0,2.2c0,0.5,0.2,0.9,0.2,1.4
		c0.2-0.1,0.3-0.1,0.4-0.2c0.4-0.1,0.6,0.1,0.6,0.5c0,0.3,0.1,0.6,0.1,0.9c0,0.2,0.2,0.4,0.3,0.5c0.3,0.2,0.4,0.4,0.4,0.8
		c-0.1,0.5,0,1,0,1.5c0,0.1,0,0.3,0.2,0.3c0.1,0,0.2,0,0.3-0.1c0.1-0.1,0.1-0.2,0-0.3c0,0-0.1-0.1-0.1-0.1c0.2-0.3,0-0.6,0-0.9
		c0-0.2,0.1-0.4,0-0.6c0,0,0-0.1,0-0.1c0.3-0.4,0.1-0.9,0.1-1.3c0-0.4,0-0.7,0-1c0.1-0.3,0-0.6,0-0.9c0-0.9,0-1.7,0-2.6
		c0-0.6,0-1.3,0-1.9c0-0.6,0.1-1.2,0-1.8c0-0.2,0-0.3,0.2-0.3c0.1,0,0.2,0.1,0.2,0.3c0,0.7,0,1.4,0,2.1c0,0.6,0,1.2,0,1.8
		c0,0.7,0,1.3,0,2c0,0.6,0,1.1,0,1.7c0,1,0.1,1.9,0,2.9c0,0.9,0,1.7,0,2.6c0,0.9,0,1.8,0,2.7c0,0.8,0,1.7,0,2.5c0,0.6,0,1.3,0,1.9
		c0,0.6,0,1.2,0,1.8c0,0.6,0,1.2,0,1.8c0,0.6,0,1.3,0,1.9c0,1,0,1.9,0,2.9c0,0.6,0,1.2,0,1.8c0,0.6,0,1.3,0,1.9c0,0.6,0,1.2,0,1.8
		c0,0.7,0,1.4,0,2c0,0.6,0,1.1,0,1.7c0,0.7,0,1.3,0,2c0,0.6,0,1.3,0,1.9c0,0.6,0,1.3,0,1.9c0,0.5,0,1.1,0,1.6c0,0.7,0,1.4,0,2.1
		c0,0.7,0.1,1.5-0.1,2.2c-0.5,2.1-0.2,4.3-0.2,6.4c-0.1,2.7,0,5.5,0,8.2c0,0.6-0.2,1.2-0.2,1.8c0,0.1,0,0.1-0.1,0.2
		c-0.4,0.5-0.6,1-0.6,1.7c0,0.2-0.2,0.3-0.3,0.3c-0.2,0-0.3-0.1-0.4-0.3c0-0.8-0.1-1.6-0.1-2.3c0-1.4,0-2.9-0.2-4.3c0,0,0-0.1,0-0.2
		c-0.1,0.1-0.2,0.2-0.3,0.2c-0.6,0.1-0.6,0.6-0.6,1c0,1.5,0,3,0,4.5c0,1,0,2.1-0.1,3.1c0,0.3-0.2,0.5-0.5,0.5
		c-0.3,0-0.5-0.3-0.5-0.5c0-0.3-0.1-0.5-0.1-0.9c-0.1,0.4-0.2,0.6-0.2,0.9c0,0.3-0.2,0.5-0.5,0.5c-0.3,0-0.4-0.2-0.4-0.5
		c-0.1-0.7-0.2-1.4-0.2-2c0-0.4-0.3-0.5-0.6-0.7c-0.2-0.1-0.2,0.1-0.2,0.2c-0.1,0.5,0,1-0.1,1.6c-0.1,0.3-0.1,0.7-0.1,1.1
		c0,0.2-0.1,0.3-0.2,0.4c-0.5,0.3-0.5,0.7-0.5,1.2c0,1.1,0,2.3,0,3.4c0,0.5,0,1,0,1.5c0,0.3-0.2,0.5-0.4,0.5c-0.1,0-0.3-0.2-0.3-0.5
		c-0.1-1.2,0.1-2.4-0.1-3.6c-0.1-0.3,0-0.7-0.1-1.1c-0.2,0.2-0.2,0.5-0.2,0.8c0,0.4-0.2,0.6-0.6,0.7c-0.3,0-0.5,0-0.8,0
		c-0.3,0-0.4,0.1-0.4,0.4c-0.1,1.3,0,2.7,0,4c0,0.8-0.1,1.5-0.2,2.3c0,0.2-0.2,0.4-0.4,0.4c-0.2,0-0.4-0.2-0.4-0.5
		c-0.3-1.4-0.1-2.9-0.2-4.3c0-0.3,0-0.5,0-0.8c0.1-0.7-0.3-1.1-0.7-1.6c-0.2,0.7-0.2,1.4-0.3,2.1c0,0.4-0.2,0.6-0.6,0.5
		c-0.5-0.1-0.6,0-0.6,0.5c0,0.3,0,0.6,0,0.9c0,0.3-0.1,0.5-0.3,0.7c-0.3,0.2-0.4,0.4-0.4,0.7c0,0.3-0.2,0.5-0.4,0.5
		c-0.2,0-0.3-0.3-0.4-0.6c-0.1-1.2,0-2.4-0.1-3.5c0-0.5,0.1-1,0-1.6c-0.1-0.3-0.1-0.4-0.4-0.2c-0.2,0.2-0.5,0.3-0.7,0.5
		c-0.1,0.1-0.3,0.2-0.5,0.1c-0.2-0.1-0.3-0.2-0.3-0.5c0-0.3-0.1-0.5-0.1-0.8c-0.1,0.2-0.2,0.4-0.2,0.6c0.1,0.3,0,0.6,0,0.9
		c0,0.4-0.3,0.6-0.7,0.6c-0.4,0-0.6,0.2-0.6,0.6c0,0.2-0.1,0.5-0.1,0.7c0,0.2,0,0.3-0.2,0.4c-0.5,0.3-0.4,0.7-0.5,1.1
		c0,0.5,0,1,0,1.6c0,0.3-0.1,0.5-0.3,0.6c-0.5,0.3-0.5,0.8-0.4,1.2c0,0.3-0.1,0.6,0,0.9c0,0.2-0.1,0.3-0.3,0.3
		c-0.2,0-0.3-0.1-0.3-0.3c0-0.5,0-1.1,0-1.6c-0.1-0.9-0.1-1.7-0.3-2.6c-0.2,0.3-0.2,0.5-0.2,0.8c0,0.4-0.2,0.6-0.5,0.6
		c-0.3,0-0.4-0.2-0.4-0.6c0-0.4,0-0.9-0.1-1.3c-0.1-0.2-0.1-0.4-0.1-0.6c0-0.7,0-1.5,0-2.2c0-0.5,0-0.5-0.5-0.5
		c-0.2,0-0.5,0-0.7-0.2c-0.2-0.1-0.2,0-0.3,0.1c-0.1,0.5-0.1,1-0.1,1.4c0,0.9,0,1.8,0,2.8c0,0.4,0,0.7,0,1.1c0,0.3-0.1,0.5-0.4,0.5
		c-0.2,0-0.4-0.2-0.4-0.5c0-1.2,0-2.5,0-3.7c0-0.4-0.1-0.7-0.4-0.9c-0.2-0.2-0.3-0.4-0.3-0.6c0-0.7,0.1-1.4-0.1-2.1
		c0-0.2,0-0.4-0.3-0.4c-0.2,0-0.5,0.1-0.5,0.4c0,0.2-0.1,0.4-0.1,0.6c0,0.4-0.2,0.6-0.5,0.9c-0.3,0.3-0.3,0.7-0.3,1.1
		c0,0.3,0,0.6,0,0.9c0,0.2-0.1,0.3-0.3,0.4c-0.2,0.1-0.3,0-0.5-0.1c-0.6-0.4-0.8-1-0.8-1.8c0-0.7-0.1-1.4-0.5-2
		c-0.1-0.2-0.2-0.4-0.2-0.6c0-0.5,0-1,0-1.5c0-0.2-0.6-0.6-0.8-0.6c-0.2,0.1-0.2,0.3-0.2,0.4c0,1,0,2,0,2.9c0,1.5,0,3.1,0,4.6
		c0,0.3-0.2,0.6-0.4,0.6c-0.2,0-0.4-0.3-0.4-0.6c0-2,0-4,0-6c0-0.7,0.1-1.3-0.1-2c0-0.2-0.1-0.3-0.3-0.4c-0.3-0.1-0.4-0.3-0.3-0.6
		c0-0.3,0-0.7-0.1-1c0-0.1,0-0.2-0.1-0.2c-0.1,0-0.1,0.1-0.1,0.2c0,0.3,0,0.6,0,0.9c0,1.3-0.1,2.6-0.1,3.8c0,1.1,0,2.2,0,3.4
		c0,0.5,0,1,0,1.5c0,0.2-0.1,0.4-0.3,0.5c-0.2,0.2-0.3,0.4-0.3,0.6c0,0.9-0.1,1.8,0,2.7c0,0.2,0,0.5,0,0.8c0,0.2-0.2,0.4-0.4,0.4
		c-0.2,0-0.4-0.2-0.4-0.5c0-0.7-0.1-1.4,0-2.1c0-0.9,0-1.8,0-2.7c0-2.2,0-4.3,0-6.5c0-0.1,0-0.2,0-0.3c-0.1-0.2-0.1-0.4-0.5-0.2
		c-0.5,0.2-0.7,0-0.8-0.5c0-1.4-0.1-2.9,0-4.3c0-1.4,0-2.7,0-4.1c0-1.1-0.1-2.3,0-3.4c0-0.9,0-1.8,0-2.7c-0.2-3.8,0-7.6-0.1-11.4
		C217.5,87.1,217.5,81.7,217.5,76.3z M248.2,153.2c1,0,1.6-0.5,1.6-1.9c0-4-6-4.8-6-10.4c0-3.1,1.5-4.9,4.5-4.9c3,0,4.5,1.8,4.5,4.9
		v0.6h-2.9v-0.8c0-1.4-0.6-1.9-1.5-1.9c-1,0-1.5,0.5-1.5,1.9c0,4,6,4.8,6,10.4c0,3.1-1.6,4.9-4.6,4.9c-3,0-4.6-1.8-4.6-4.9v-1.2h2.9
		v1.4C246.6,152.7,247.2,153.2,248.2,153.2z M222.6,139v-2.8h9.5v2.8h-3.2v16.8h-3.1V139H222.6z M215.3,50.3c0-0.1,0-0.1,0-0.2
		c0-0.1-0.1-0.3,0.1-0.3c0.2,0,0.3,0.2,0.3,0.4c0.1,1,0,2,0.1,3c0,0.8,0,1.7,0,2.5c0,0.8,0,1.6,0,2.5c0,0.5,0,0.9,0,1.4
		c0,0.2,0,0.4,0.1,0.6c0.3-0.4,0.2-0.9,0.2-1.3c0-1.4,0-2.8,0-4.2c0-0.4-0.1-0.8-0.1-1.3c0-0.3,0.2-0.5,0.5-0.5
		c0.2-0.1,0.5,0.2,0.5,0.5c0,1.1,0,2.2,0,3.3c0,1.1,0,2.2,0,3.4c0.1,2.5,0,5,0,7.4c0,1.7,0.1,3.4,0.1,5.1c0,8.4,0,16.9,0,25.3
		c0,1.6,0,3.2,0,4.7c0,0.3-0.1,0.6-0.4,0.8c-0.2,0.1-0.2,0.3-0.2,0.5c0,2,0,3.9,0,5.9c0,0.7-0.1,1.3-0.2,1.9c0,0.6,0,1.2,0,1.8
		c0,0.6,0,1.1,0,1.7c0,0.2-0.2,0.4-0.3,0.4c-0.2,0-0.4-0.2-0.4-0.4c0-0.5,0-0.9,0-1.4c0-1,0-2-0.2-3.1c-0.1-0.7,0-1.4,0-2.1
		c0-1.1,0-2.2,0-3.3c0-1.5,0-3,0-4.4c-0.3-7.4-0.1-14.8-0.1-22.3C215.3,69.2,215.3,59.8,215.3,50.3z M178.7,70.7
		c0-0.2,0.1-0.4,0.2-0.4c0.4-0.2,0.5-0.6,0.5-1c0-1.3,0-2.6,0-3.9c0-2.1,0-4.2,0-6.4c0-0.7,0-1.3,0-2c0-0.2,0.1-0.3,0.2-0.3
		c0.4-0.3,0.4-0.7,0.4-1c0-0.8,0-1.6,0-2.4c0-0.3,0.6-1,0.9-1.1c0.2,0,0.3,0.1,0.3,0.3c0.1,0.8,0.1,1.5,0.1,2.3c0,0.5,0,0.9,0.1,1.4
		c0,0.2,0.1,0.3,0.2,0.4c0.3,0.2,0.4,0.4,0.4,0.8c0.1,2.1,0.2,4.2,0.2,6.2c0,0.1,0,0.3,0.1,0.3c0.1,0,0.2,0,0.2,0l0-0.1l0-1.4
		c0,0,0-0.1,0-0.1l0-0.6c0-0.1,0-0.1,0-0.2l0-0.7c0,0,0-0.1,0-0.1c0,0,0,0,0-0.1l0-0.6c0,0,0-0.1,0-0.1c0,0,0,0,0-0.1l0-0.7
		c0,0,0,0,0,0c0,0,0,0,0,0l0.1-10.4c0,0,0,0,0-0.1c0-0.1,0.2-0.1,0.2-0.1c0.2,0,0.4,0,0.6,0c0.2,0,0.4,0.2,0.4,0.3
		c-0.1,0.3,0.1,0.6,0,0.9c0,0.2,0.2,0.5,0.4,0.6c0.4,0.4,0.4,0.9,0.4,1.3c0,0.4,0,0.9,0,1.3c0,0.4,0.1,0.7,0.1,1.1
		c0,0.1,0,0.3,0.2,0.4c0.2,0,0.2-0.1,0.2-0.3c0-0.2,0.2-0.4,0.4-0.4c0.2,0,0.4,0.2,0.5,0.3c0.1,0.1,0.1,0.3,0.2,0.4
		c0.2-0.1,0.1-0.4,0.3-0.5c0.4-0.3,0.8-0.8,1.4-0.8c0.4,0,0.4-0.3,0.4-0.5c0.1-0.6,0-1.1,0.1-1.7c0.1-0.2,0.2-0.5,0.4-0.5
		c0.2,0,0.3,0.2,0.4,0.4c0.2,0.4,0.1,0.8,0.1,1.2c0,0.4,0,0.7,0.1,1.1c0,0.1,0,0.4,0.2,0.3c0.2,0,0.6,0.1,0.6-0.3
		c0-0.5,0.1-1.1,0.1-1.6c0-0.8,0.4-1.3,1.1-1.7c0.1-0.1,0.2,0,0.3,0.1c0.2,0.3,0.6,0.4,0.9,0.6c0.2,0.1,0.2,0.1,0.3-0.1
		c0-0.2,0.1-0.4,0.1-0.6c0-0.5,0-0.9,0-1.4c0-0.6,0.3-1,0.3-1.6c0-0.1,0.1-0.2,0.2-0.1c0.1,0,0.1,0.1,0.2,0.2c0.3,1,0.4,2,0.3,3
		c0,0.4,0,0.8,0.1,1.1c0,0.1,0,0.2,0.1,0.2c0.1,0,0.1-0.1,0.1-0.2c0.2-0.5,0.1-1,0.1-1.5c0-0.5,0.1-1,0.1-1.5c0-0.1,0.1-0.2,0.3-0.2
		c0.1,0,0.2,0.1,0.2,0.2c0,0.5,0,1.1,0,1.6c0,1.1,0,2.1,0.3,3.2c0,0,0,0.1,0.1,0.1c0.2-0.3,0.1-0.6,0.2-0.9c0.1-0.3,0.2-0.5,0.4-0.6
		c0.2-0.1,0.3-0.3,0.3-0.5c0-0.3,0.1-0.7,0.2-1c0-0.2,0.1-0.3,0.3-0.3c0.2,0,0.3,0.1,0.4,0.3c0.1,0.3,0.2,0.6,0.2,0.9
		c0,0.3,0.2,0.4,0.4,0.2c0.1-0.1,0.2-0.1,0.3-0.2c0.3-0.1,0.5-0.3,0.5-0.7c-0.1-0.3,0.1-0.6,0-0.9c0-0.1,0.1-0.2,0.2-0.2
		c0.1,0,0.2,0.1,0.2,0.2c-0.1,0.4,0.1,0.7,0.1,1.1c-0.1,0.2,0.1,0.5,0.1,0.8c0,0.5,0,1,0.2,1.5c0-0.6,0.2-1.2,0.2-1.8
		c0-0.5,0.2-0.9,0.3-1.3c0.1-0.5,0-0.9,0-1.4c0-0.2,0.1-0.3,0.2-0.4c0.2,0,0.3,0.1,0.3,0.3c0,0.6,0,1.1,0.1,1.7
		c0.1,0.6,0.1,1.2,0.2,1.8c0,0.1,0.1,0.2,0.1,0.3c0.3,0.3,0.4,0.6,0.4,1c0,0.1,0,0.3,0.2,0.3c0.2,0,0.2-0.2,0.2-0.3
		c0.2-0.7,0.1-1.4,0.2-2.1c0-0.2,0-0.5,0.2-0.5c0.2,0,0.2,0.2,0.2,0.4c0,0.8,0,1.5,0.1,2.3c0,0.3,0.2,0.7,0.4,0.9
		c0.4,0.4,0.4,0.8,0.4,1.3c0,0.6,0,1.1,0.1,1.7c0,0.1,0,0.1,0,0.2c0.7-0.6,1.1-1.3,1-2.2c0-0.3,0-0.7,0.1-1c0.1-0.4,0.3-0.5,0.6-0.3
		c0.2,0.2,0.4,0.4,0.6-0.1c0.1-0.2,0.4-0.1,0.6-0.1c0.2,0,0.1,0.2,0.1,0.3c0,0,0,0.1,0,0.1c0.4,0.5,0,1.2,0.7,1.6
		c0.2,0.1,0.2,0.3,0.2,0.5c0,0.5-0.1,1.1,0.2,1.6c0.1-0.5,0.1-1,0.1-1.5c0-0.7,0-1.5,0.2-2.2c0-0.1,0.1-0.2,0.1-0.3
		c0.2-0.8,0.5-1.8,0.9-1.9c0.6-0.3,0.6,0,0.6,0l0,0.1c0.2-0.2,0.3,0.1,0.3,0.3c0,0.8,0,1.6,0,2.4c0,0.3,0.2,0.6,0.2,0.9
		c0,0.7,0,1.4,0,2c0.1,1.4,0.1,2.8,0.1,4.2c0,0.1,0,0.2,0.1,0.2c0.1-0.1,0.1-0.3,0.1-0.5c0-0.8,0-1.7,0-2.5c0-0.4,0-0.7,0.2-1
		c0.1-0.3,0.1-0.6,0.1-0.9c0-0.6,0-1.1,0-1.7c0-0.1,0.1-0.2,0.2-0.2c0.1,0,0.2,0.1,0.2,0.2c0.1,0.8-0.1,1.6,0.1,2.4
		c0.3,1.3,0.1,2.6,0.3,3.9c0,0,0,0.1,0.1,0.2c0.1-0.3,0.2-0.5,0.2-0.8c0-0.6,0.1-1.2,0.1-1.8c0-0.2,0.1-0.2,0.3-0.2
		c0.1,0,0.3,0.1,0.2,0.2c-0.1,0.3,0.1,0.7,0,1c0,0.2,0,0.3,0.2,0.4c0.7,0.2,0.6,0.8,0.6,1.3c0,0.5,0,1.1,0.2,1.6
		c0.1,0.4,0,0.9,0.1,1.3c0,0.7,0,0.7,0.7,0.9c0,0.1-0.2,0-0.2,0.2c0.3,0.9,0.1,1.9,0.2,2.9c0,1,0.1,1.9,0,2.9c0,1.1,0,2.2,0,3.3
		c0,1.1,0,2.3,0,3.4c0,1.3,0,2.6,0,3.9c0,1,0,1.9,0,2.9c0,0.8,0,1.6,0,2.4c0,1,0.1,1.9,0,2.9c0,0.8,0,1.6,0,2.4c0,1.4,0,2.9,0,4.3
		c0,1.3,0,2.7,0,4.1c-0.3,4.6-0.1,9.1-0.1,13.7c0,0.8,0,1.6,0,2.3c0,0.5-0.3,1-0.2,1.5c0,0.1-0.1,0.2-0.2,0.3
		c-0.6,0.4-0.5,1-0.5,1.6c0,0.1-0.1,0.2-0.2,0.2c-0.1,0-0.2-0.1-0.2-0.2c0.1-0.4-0.1-0.8-0.1-1.2c0.1-1.1,0-2.2-0.1-3.3
		c-0.2-1.5-0.2-3.1-0.3-4.6c0,0,0,0-0.1-0.1c0,0.7-0.1,1.4-0.1,2c0,0.2-0.1,0.3-0.2,0.4c-0.5,0.2-0.5,0.7-0.6,1.1c0,1.5,0,3,0,4.5
		c0,1,0,2.1-0.1,3.1c0,0.2-0.1,0.3-0.3,0.3c-0.2,0-0.3-0.1-0.3-0.4c0.1-0.4-0.1-0.7-0.1-1.1c0-0.2-0.1-0.3,0-0.5
		c0.1-0.3-0.2-0.5-0.2-0.7c-0.1,0.2-0.2,0.5-0.2,0.8c0.1,0.6-0.3,1.1-0.3,1.7c0,0.1-0.1,0.2-0.3,0.2c-0.1,0-0.2-0.1-0.2-0.2
		c-0.1-0.7-0.4-1.5-0.3-2.3c0-0.2,0-0.4-0.3-0.5c-0.4-0.3-0.3-0.7-0.3-1.1c0-0.4,0-0.8-0.2-1.1c0,0.2-0.1,0.5-0.1,0.7
		c0,0.9,0,1.7-0.1,2.6c-0.1,0.6-0.2,1.2-0.2,1.8c0,0.1-0.1,0.2-0.2,0.3c-0.5,0.3-0.6,0.8-0.6,1.3c0,0.6,0,1.2,0,1.8
		c0,0.6,0,1.2,0,1.8c0,0.4,0,0.9,0,1.3c0,0.2,0,0.3-0.2,0.3c-0.2,0-0.2-0.2-0.2-0.3c0-1.1,0-2.1,0-3.2c0-0.5-0.1-1-0.1-1.4
		c0-0.1-0.1-0.2-0.2-0.3c-0.1-0.1-0.2-0.1-0.2,0c-0.1,0.3-0.3,0.6-0.3,1c0,0.3-0.2,0.4-0.4,0.5c-0.2,0-0.5,0-0.7,0
		c-0.3-0.1-0.5-0.2-0.5-0.6c0-0.1,0-0.3-0.1-0.4c-0.1,1.4-0.2,2.7-0.2,4c0,1,0.1,1.9-0.1,2.9c-0.1,0.3-0.2,0.6-0.2,0.9
		c0,0.1-0.1,0.2-0.2,0.2c-0.1,0-0.2-0.1-0.2-0.2c-0.1-0.7-0.5-1.4-0.4-2.1c0.1-1.1,0.1-2.1,0.1-3.2c0-0.5,0-1.1-0.5-1.4
		c-0.1-0.1-0.1-0.2-0.2-0.4c0-0.1,0-0.2-0.2-0.2c-0.1,0-0.1,0.2-0.1,0.2c0,0.2,0,0.4,0,0.6c-0.2,0.6-0.3,1.2-0.3,1.9
		c0,0.1-0.1,0.3-0.3,0.2c-0.1,0-0.3-0.1-0.3-0.3c0-0.6,0-1.1-0.2-1.7c-0.2,0.2-0.1,0.4-0.1,0.5c0.1,0.9-0.2,1.7-0.3,2.6
		c0,0.1,0,0.2,0,0.3c0,0.3-0.1,0.6-0.4,0.7c-0.3,0.2-0.3,0.4-0.3,0.7c0,0.2,0,0.3-0.2,0.3c-0.2,0-0.2-0.2-0.2-0.3
		c-0.2-1.6-0.1-3.1-0.1-4.7c0-0.3,0-0.5-0.1-0.8c0-0.1-0.1-0.3-0.2-0.3c-0.1,0-0.2,0.1-0.3,0.2c-0.3,0.3-0.6,0.4-0.9,0.7
		c-0.2,0.2-0.5,0-0.5-0.3c0-0.3-0.1-0.6-0.1-0.9c0-0.2,0-0.4-0.3-0.4c-0.2,0-0.2,0.2-0.2,0.4c0,0.5-0.1,1-0.1,1.5
		c0,0.3-0.1,0.4-0.4,0.5c-0.3,0.1-0.6,0-0.8,0.3c-0.2,0.3-0.2,0.7-0.2,1.1c0,0.2,0,0.3-0.2,0.4c-0.5,0.3-0.5,0.9-0.5,1.4
		c0,0.5,0,1.1,0,1.6c0,0.2-0.1,0.3-0.3,0.4c-0.4,0.2-0.5,0.4-0.5,0.8c0,0.3,0,0.7,0,1c-0.1,0-0.3,0-0.4,0c0-0.2,0.1-0.5,0.1-0.7
		c-0.1-0.4,0-0.7-0.1-1.1c-0.1-0.4-0.2-0.8-0.1-1.2c0-0.2,0-0.5-0.1-0.7c0-0.1-0.1-0.4-0.3-0.3c-0.2,0-0.2,0.2-0.3,0.4
		c-0.1,0.3-0.1,0.6-0.1,0.9c0,0.2-0.1,0.3-0.3,0.3c-0.1,0-0.2-0.1-0.2-0.3c0-0.1,0-0.3,0-0.5c0-0.6-0.3-1.2-0.3-1.8
		c0.1-1.1,0-2.2-0.1-3.3c0-0.1,0-0.2-0.1-0.2c-0.1,0.1-0.1,0.2-0.1,0.3c0,0.2,0,0.4-0.2,0.5c-0.2,0.1-0.4,0-0.6-0.1
		c-0.1-0.1-0.2-0.3-0.4-0.2c-0.2,0.1-0.2,0.3-0.3,0.5c0,0.6-0.1,1.2-0.1,1.8c0,0.6,0,1.3,0,1.9c0,0.6,0,1.2,0,1.7
		c0,0.1,0,0.2-0.2,0.2c-0.1,0-0.2-0.1-0.2-0.2c0.1-0.3-0.1-0.7-0.1-1c0-0.3,0-0.7,0-1c0-0.6,0-1.3,0-1.9c0-0.4,0-0.8-0.5-1
		c-0.1,0-0.2-0.1-0.2-0.3c0-0.3-0.1-0.6,0-0.9c0-0.6-0.1-1.1-0.2-1.7c-0.1-0.4-0.4-0.4-0.7-0.4c-0.3,0-0.2,0.3-0.2,0.4
		c-0.1,0.6-0.2,1.3-0.7,1.7c-0.2,0.1-0.2,0.3-0.2,0.5c-0.1,0.5,0,1-0.1,1.4c0,0.2-0.1,0.4-0.3,0.4c-0.2,0-0.9-0.7-0.9-0.9
		c0-0.7-0.2-1.4-0.2-2.1c0-0.3-0.1-0.6-0.3-0.9c-0.1-0.1-0.1-0.2-0.1-0.3c0-0.3,0-0.6,0-0.9c0-0.6,0-1.1-0.6-1.4
		c-0.5-0.2-0.6-0.3-0.7,0.3c0,0.1,0,0.2,0,0.3c0,1.1,0,2.2,0,3.3c0,1.4,0.1,2.7,0,4.1c0,0.2,0,0.4-0.2,0.4c-0.2,0-0.3-0.2-0.3-0.4
		c0-0.4,0-0.8,0-1.3c0-0.5,0-1.1,0-1.6c0-0.7,0-1.3,0-2c0-0.9,0-1.8,0-2.7c0-0.3,0.1-0.7-0.2-0.9c-0.4-0.2-0.5-0.5-0.5-0.9
		c0-0.2,0-0.3,0-0.5c0-0.3,0-0.6-0.1-0.8c0-0.1-0.1-0.3-0.2-0.3c-0.2,0-0.2,0.2-0.2,0.3c0,0.1,0,0.2,0,0.3c0,0.5,0,1.1,0,1.6
		c-0.1,0.9-0.1,1.8-0.1,2.7c0,0.9,0,1.7,0,2.6c0,0.9,0,1.9,0,2.8c0,0.3-0.1,0.5-0.3,0.6c-0.2,0.1-0.3,0.2-0.3,0.4
		c-0.1,0.7,0,1.4-0.1,2.1c0,0.6,0,1.2-0.1,1.8c-0.1,0-0.2,0-0.3,0c-0.1-0.9-0.1-1.7-0.1-2.6c0-0.9,0-1.8,0-2.8c0-0.6,0-1.2,0-1.8
		c0-0.7,0-1.3,0-2c0-0.6,0-1.2,0-1.8c0-0.4,0.1-0.8-0.2-1.2c-0.1-0.1-0.1-0.3-0.1-0.4c0-4.1,0-8.1,0-12.2c0-0.2,0-0.4-0.1-0.6
		c0,0,0-0.1-0.1-0.1c0,0-0.1,0-0.1,0.1c0,0.3-0.2,0.5-0.2,0.8c0.1,0.3,0,0.6,0,0.9c0,0.7,0,1.4,0,2.1c0,0.6,0,1.2,0,1.8
		c0,0.6,0,1.2,0,1.8c0,0.6,0,1.3,0,1.9c0,0.4,0,0.8,0,1.2c0,0.3,0,0.6,0,0.9c0,0.5,0,0.9-0.1,1.4c0,0.1-0.1,0.2-0.2,0.2
		c-0.1,0-0.2-0.1-0.2-0.2c0-0.6-0.1-1.1,0-1.7c0-0.3,0-0.6,0-0.8c0-0.6,0.1-1.3,0-1.9c0-0.3,0-0.5,0-0.8c0.1-0.4,0-0.8,0-1.1
		c0-0.6,0-1.2,0-1.8c0-0.4-0.1-0.8,0-1.2c0.1-0.2-0.1-0.5-0.1-0.8c0.1-0.8,0-1.7,0-2.5c0-0.7-0.1-1.3,0-2c0-0.6,0-1.3,0-1.9
		c0-0.6,0-1.2,0-1.7c0-0.7,0-1.3,0-2c0-0.6,0-1.2,0-1.8c0-0.6,0-1.2,0-1.8c0-0.6,0-1.3,0-1.9c0-0.6,0-1.3,0-1.9c0-0.6,0-1.3,0-1.9
		c0-0.6,0-1.3,0-1.9c0-0.6,0-1.2,0-1.8c0-0.6,0-1.2,0-1.9c0-0.4,0-0.9,0-1.3c0-0.6,0-1.2,0-1.8c0-0.6-0.1-1.3,0-1.9c0-0.3,0-0.7,0-1
		c0-0.7,0-1.4,0-2.1c0-1.6-0.1-3.2-0.1-4.8C178.7,72.7,178.7,71.7,178.7,70.7z M210.7,136.2v19.6h-3.2l-3.8-14.2v14.2h-2.8v-19.6
		h3.9l3.2,11.7v-11.7H210.7z M187.3,144.4v2.8h-4.2v5.7h5.3v2.8H180v-19.6h8.4v2.8h-5.3v5.5H187.3z M176.3,87.1c0-2.8,0-5.6,0-8.4
		c0-5.4,0-10.8,0-16.1c0-3.6,0-7.2,0-10.7c0-0.1-0.1-0.3,0.1-0.3c0.2,0,0.2,0.2,0.2,0.3c0.1,0.8,0,1.6,0,2.4c0.1,0.9,0,1.8,0.1,2.6
		c0,0.6,0,1.2,0,1.8c0,0.6,0,1.3,0,1.9c0,0.4,0,0.8,0,1.2c0,0.2,0.1,0.4,0.3,0.4c0.2,0,0.3-0.1,0.3-0.4c0.1-1.5,0-3.1,0-4.6
		c0-0.7-0.1-1.4,0.1-2.2c0-0.2,0.1-0.3,0.2-0.3c0.2,0,0.2,0.1,0.2,0.3c0,0.8,0,1.7,0,2.5c0,0.6,0,1.3,0,1.9c0,0.6,0,1.2,0,1.8
		c0,0.6,0,1.1,0.1,1.7c0,0.6,0,1.2,0,1.8c0,0.9,0,1.9,0,2.8c0,2.4,0,4.8,0,7.2c0,1.4,0,2.8,0,4.2c0,1.1,0,2.2,0,3.4
		c0,1.1,0,2.3,0,3.4c0,1.1,0,2.2,0,3.3c0,1.1,0,2.3,0,3.4c0,1.3,0,2.6,0,3.9c0,1.2,0,2.4,0,3.6c0,1,0,2,0,3.1c0,0.9,0,1.9,0,2.8
		c0,0.2,0,0.3-0.1,0.4c-0.5,0.3-0.4,0.8-0.4,1.2c0,2.1,0,4.2,0,6.2c0,0.2-0.1,0.4-0.2,0.7c-0.1,0.8-0.1,1.5-0.1,2.3
		c0,0.6,0,1.1,0,1.7c0,0.1-0.1,0.2-0.2,0.2c-0.1,0-0.2-0.1-0.2-0.2c0-0.2,0-0.5-0.1-0.7c0.1-0.9,0-1.8,0-2.6c0-0.2,0-0.4-0.1-0.6
		c-0.3-1-0.1-1.9-0.2-2.9c0-2.6,0.2-5.2-0.1-7.7c-0.3-2.8-0.1-5.6-0.2-8.3C176.3,92.7,176.3,89.9,176.3,87.1z M139.3,76.3
		c0-2.4,0-4.7,0-7.1c0-0.3,0.1-0.5,0.3-0.6c0.4-0.2,0.5-0.6,0.5-1c0-1.2,0-2.4,0-3.6c0-1.1,0-2.3,0-3.4c0-1.1,0-2.2,0-3.3
		c0-0.6,0-1.2,0-1.8c0-0.2,0-0.4,0.2-0.5c0.4-0.3,0.4-0.7,0.4-1.1c0-0.6,0-1.3,0-1.9c0-0.5,0.1-0.9,0.5-1.2c0.2-0.1,0.3-0.5,0.6-0.4
		c0.3,0.1,0.3,0.4,0.4,0.7c0.1,0.7,0,1.4,0,2.1c0,0.4,0,0.8,0.1,1.1c0,0.2,0.1,0.4,0.3,0.5c0.3,0.1,0.4,0.4,0.3,0.7c0,0.5,0,1,0,1.5
		c0,0.5,0.1,0.6,0.3,0.6l0-0.1c0,0-0.4-7.2-0.3-10c0.1-2.2,0.9-1,1.2-0.5c0.2,0,0.3,0,0.5,0c0.2,0,0.3,0.1,0.3,0.3
		c0,0.2,0.1,0.4,0,0.6c-0.1,0.6,0.4,0.9,0.6,1.3c0,0.1,0.1,0.1,0.1,0.2c-0.1,0.6,0,1.2,0,1.9c0,0.3,0,0.5,0,0.8
		c0,0.3,0.2,0.3,0.4,0.2c0.6-0.1,0.7-0.1,1,0.4c0.4-0.5,0.8-1,1.6-1.1c0.3,0,0.4-0.2,0.4-0.5c0-0.5,0-1,0.1-1.6
		c0.1-0.3,0.2-0.5,0.5-0.5c0.3,0,0.4,0.2,0.5,0.5c0.2,0.7,0,1.4,0.1,2.1c0,0.2,0.1,0.4,0.4,0.4c0.2,0,0.4-0.1,0.4-0.3
		c0-0.5,0-1,0-1.5c0-0.8,0.4-1.3,1-1.7c0.2-0.1,0.4,0,0.5,0.1c0.1,0.1,0.2,0.2,0.3,0.3c0.2,0.1,0.4,0.2,0.6,0.1
		c0.2-0.1,0.1-0.3,0.1-0.5c0-0.9,0-1.9,0.2-2.8c0-0.3,0.2-0.5,0.4-0.5c0.2,0,0.4,0.2,0.4,0.5c0,0.1,0,0.2,0,0.3
		c0.1,0.5,0.2,0.6,0.7,0.4c0.3-0.1,0.6,0.1,0.6,0.4c0,0.8,0,1.6,0,2.4c0,0.6,0,1.1,0.3,1.7c0-0.5,0.4-0.7,0.6-1
		c0.2-0.3,0.1-0.7,0.2-1c0.1-0.3,0.2-0.4,0.4-0.6c0.1-0.1,0.5,0.1,0.6,0.4c0.1,0.2,0.1,0.5,0.2,0.7c0,0.2,0.1,0.2,0.3,0.2
		c0.6-0.1,0.6-0.1,0.7-0.8c0-0.2,0.1-0.4,0-0.7c0-0.2,0.2-0.4,0.4-0.4c0.2,0,0.5,0.1,0.4,0.4c0,0.4,0.2,0.7,0.2,1.2
		c0.3-0.8,0.2-1.6,0.3-2.4c0-0.3,0.1-0.5,0.4-0.5c0.2,0,0.4,0.2,0.4,0.4c0,1,0.2,2.1,0.2,3.1c0,0.1,0,0.2,0.1,0.3
		c0.3,0.4,0.6,0.9,0.6,1.5c0.2-0.5,0.3-1,0.3-1.5c0-0.3,0-0.6,0.1-0.9c0-0.2,0.2-0.4,0.4-0.3c0.2,0,0.4,0.2,0.4,0.5c0,0.5,0,1,0,1.5
		c0,0.7,0,1.3,0.6,1.9c0.3,0.3,0.3,0.8,0.3,1.2c0,0.5,0,1,0,1.4c0.7-0.3,0.9-0.8,0.9-1.5c0-0.4,0-0.8,0.1-1.3
		c0.1-0.4,0.2-0.6,0.6-0.4c0.4,0.2,0.7-0.1,1.1,0c0.2,0,0.5,0,0.4,0.4c-0.1,0.3,0.2,0.6,0.2,1c0,0.2,0.4,0.3,0.6,0.5
		c0.1,0,0.1-0.1,0.1-0.2c0-0.3,0-0.7,0.1-1c0-0.4,0.2-0.5,0.5-0.7c-0.1-0.3-0.1-0.8-0.2-1.3c-0.3-1.9,0.5-1.2,0.9-0.8
		c0.6,0,1,0.4,1,1c0,0.7,0,1.4,0,2c0.1,1.4,0,2.8,0.2,4.2c0.1,0.9,0,1.8,0,2.7c0,0.1,0,0.2,0.1,0.4c0-1,0-1.9,0-2.9
		c0-0.7,0.2-1.5,0.2-2.2c0-0.4,0-0.7,0-1.1c0-0.3,0.2-0.6,0.4-0.5c0.3,0.1,0.4,0.3,0.4,0.5c0,0.7,0,1.4,0,2.2c0,0.5,0.2,0.9,0.2,1.4
		c0.2-0.1,0.3-0.1,0.4-0.2c0.4-0.1,0.6,0.1,0.6,0.5c0,0.3,0.1,0.6,0.1,0.9c0,0.2,0.2,0.4,0.3,0.5c0.3,0.2,0.4,0.4,0.4,0.8
		c-0.1,0.5,0,1,0,1.5c0,0.1,0,0.3,0.2,0.3c0.1,0,0.2,0,0.3-0.1c0.1-0.1,0.1-0.2,0-0.3c0,0-0.1-0.1-0.1-0.1c0.2-0.3,0-0.6,0-0.9
		c0-0.2,0.1-0.4,0-0.6c0,0,0-0.1,0-0.1c0.3-0.4,0.1-0.9,0.1-1.3c0-0.4,0-0.7,0-1c0.1-0.3,0-0.6,0-0.9c0-0.9,0-1.7,0-2.6
		c0-0.6,0-1.3,0-1.9c0-0.6,0.1-1.2,0-1.8c0-0.2,0-0.3,0.2-0.3c0.1,0,0.2,0.1,0.2,0.3c0,0.7,0,1.4,0,2.1c0,0.6,0,1.2,0,1.8
		c0,0.7,0,1.3,0,2c0,0.6,0,1.1,0,1.7c0,1,0.1,1.9,0,2.9c0,0.9,0,1.7,0,2.6c0,0.9,0,1.8,0,2.7c0,0.8,0,1.7,0,2.5c0,0.6,0,1.3,0,1.9
		c0,0.6,0,1.2,0,1.8c0,0.6,0,1.2,0,1.8c0,0.6,0,1.3,0,1.9c0,1,0,1.9,0,2.9c0,0.6,0,1.2,0,1.8c0,0.6,0,1.3,0,1.9c0,0.6,0,1.2,0,1.8
		c0,0.7,0,1.4,0,2c0,0.6,0,1.1,0,1.7c0,0.7,0,1.3,0,2c0,0.6,0,1.3,0,1.9c0,0.6,0,1.3,0,1.9c0,0.5,0,1.1,0,1.6c0,0.7,0,1.4,0,2.1
		c0,0.7,0.1,1.5-0.1,2.2c-0.5,2.1-0.2,4.3-0.2,6.4c-0.1,2.7,0,5.5,0,8.2c0,0.6-0.2,1.2-0.2,1.8c0,0.1,0,0.1-0.1,0.2
		c-0.4,0.5-0.6,1-0.6,1.7c0,0.2-0.2,0.3-0.3,0.3c-0.2,0-0.3-0.1-0.4-0.3c0-0.8-0.1-1.6-0.1-2.3c0-1.4,0-2.9-0.2-4.3c0,0,0-0.1,0-0.2
		c-0.1,0.1-0.2,0.2-0.3,0.2c-0.6,0.1-0.6,0.6-0.6,1c0,1.5,0,3,0,4.5c0,1,0,2.1-0.1,3.1c0,0.3-0.2,0.5-0.5,0.5
		c-0.3,0-0.5-0.3-0.5-0.5c0-0.3-0.1-0.5-0.1-0.9c-0.1,0.4-0.2,0.6-0.2,0.9c0,0.3-0.2,0.5-0.5,0.5c-0.3,0-0.4-0.2-0.4-0.5
		c-0.1-0.7-0.2-1.4-0.2-2c0-0.4-0.3-0.5-0.6-0.7c-0.2-0.1-0.2,0.1-0.2,0.2c-0.1,0.5,0,1-0.1,1.6c-0.1,0.3-0.1,0.7-0.1,1.1
		c0,0.2-0.1,0.3-0.2,0.4c-0.5,0.3-0.5,0.7-0.5,1.2c0,1.1,0,2.3,0,3.4c0,0.5,0,1,0,1.5c0,0.3-0.2,0.5-0.4,0.5c-0.1,0-0.3-0.2-0.3-0.5
		c-0.1-1.2,0.1-2.4-0.1-3.6c-0.1-0.3,0-0.7-0.1-1.1c-0.2,0.2-0.2,0.5-0.2,0.8c0,0.4-0.2,0.6-0.6,0.7c-0.3,0-0.5,0-0.8,0
		c-0.3,0-0.4,0.1-0.4,0.4c-0.1,1.3,0,2.7,0,4c0,0.8-0.1,1.5-0.2,2.3c0,0.2-0.2,0.4-0.4,0.4c-0.2,0-0.4-0.2-0.4-0.5
		c-0.3-1.4-0.1-2.9-0.2-4.3c0-0.3,0-0.5,0-0.8c0.1-0.7-0.3-1.1-0.7-1.6c-0.2,0.7-0.2,1.4-0.3,2.1c0,0.4-0.2,0.6-0.6,0.5
		c-0.5-0.1-0.6,0-0.6,0.5c0,0.3,0,0.6,0,0.9c0,0.3-0.1,0.5-0.3,0.7c-0.3,0.2-0.4,0.4-0.4,0.7c0,0.3-0.2,0.5-0.4,0.5
		c-0.2,0-0.3-0.3-0.4-0.6c-0.1-1.2,0-2.4-0.1-3.5c0-0.5,0.1-1,0-1.6c-0.1-0.3-0.1-0.4-0.4-0.2c-0.2,0.2-0.5,0.3-0.7,0.5
		c-0.1,0.1-0.3,0.2-0.5,0.1c-0.2-0.1-0.3-0.2-0.3-0.5c0-0.3-0.1-0.5-0.1-0.8c-0.1,0.2-0.2,0.4-0.2,0.6c0.1,0.3,0,0.6,0,0.9
		c0,0.4-0.3,0.6-0.7,0.6c-0.4,0-0.6,0.2-0.6,0.6c0,0.2-0.1,0.5-0.1,0.7c0,0.2,0,0.3-0.2,0.4c-0.5,0.3-0.4,0.7-0.5,1.1
		c0,0.5,0,1,0,1.6c0,0.3-0.1,0.5-0.3,0.6c-0.5,0.3-0.5,0.8-0.4,1.2c0,0.3-0.1,0.6,0,0.9c0,0.2-0.1,0.3-0.3,0.3
		c-0.2,0-0.3-0.1-0.3-0.3c0-0.5,0-1.1,0-1.6c-0.1-0.9-0.1-1.7-0.3-2.6c-0.2,0.3-0.2,0.5-0.2,0.8c0,0.4-0.2,0.6-0.5,0.6
		c-0.3,0-0.4-0.2-0.4-0.6c0-0.4,0-0.9-0.1-1.3c-0.1-0.2-0.1-0.4-0.1-0.6c0-0.7,0-1.5,0-2.2c0-0.5,0-0.5-0.5-0.5
		c-0.2,0-0.5,0-0.7-0.2c-0.2-0.1-0.2,0-0.3,0.1c-0.1,0.5-0.1,1-0.1,1.4c0,0.9,0,1.8,0,2.8c0,0.4,0,0.7,0,1.1c0,0.3-0.1,0.5-0.4,0.5
		c-0.2,0-0.4-0.2-0.4-0.5c0-1.2,0-2.5,0-3.7c0-0.4-0.1-0.7-0.4-0.9c-0.2-0.2-0.3-0.4-0.3-0.6c0-0.7,0.1-1.4-0.1-2.1
		c0-0.2,0-0.4-0.3-0.4c-0.2,0-0.5,0.1-0.5,0.4c0,0.2-0.1,0.4-0.1,0.6c0,0.4-0.2,0.6-0.5,0.9c-0.3,0.3-0.3,0.7-0.3,1.1
		c0,0.3,0,0.6,0,0.9c0,0.2-0.1,0.3-0.3,0.4c-0.2,0.1-0.3,0-0.5-0.1c-0.6-0.4-0.8-1-0.8-1.8c0-0.7-0.1-1.4-0.5-2
		c-0.1-0.2-0.2-0.4-0.2-0.6c0-0.5,0-1,0-1.5c0-0.2-0.6-0.6-0.8-0.6c-0.2,0.1-0.2,0.3-0.2,0.4c0,1,0,2,0,2.9c0,1.5,0,3.1,0,4.6
		c0,0.3-0.2,0.6-0.4,0.6c-0.2,0-0.4-0.3-0.4-0.6c0-2,0-4,0-6c0-0.7,0.1-1.3-0.1-2c0-0.2-0.1-0.3-0.3-0.4c-0.3-0.1-0.4-0.3-0.3-0.6
		c0-0.3,0-0.7-0.1-1c0-0.1,0-0.2-0.1-0.2c-0.1,0-0.1,0.1-0.1,0.2c0,0.3,0,0.6,0,0.9c0,1.3-0.1,2.6-0.1,3.8c0,1.1,0,2.2,0,3.4
		c0,0.5,0,1,0,1.5c0,0.2-0.1,0.4-0.3,0.5c-0.2,0.2-0.3,0.4-0.3,0.6c0,0.9-0.1,1.8,0,2.7c0,0.2,0,0.5,0,0.8c0,0.2-0.2,0.4-0.4,0.4
		c-0.2,0-0.4-0.2-0.4-0.5c0-0.7-0.1-1.4,0-2.1c0-0.9,0-1.8,0-2.7c0-2.2,0-4.3,0-6.5c0-0.1,0-0.2,0-0.3c-0.1-0.2-0.1-0.4-0.5-0.2
		c-0.5,0.2-0.7,0-0.8-0.5c0-1.4-0.1-2.9,0-4.3c0-1.4,0-2.7,0-4.1c0-1.1-0.1-2.3,0-3.4c0-0.9,0-1.8,0-2.7c-0.2-3.8,0-7.6-0.1-11.4
		C139.3,87.1,139.3,81.7,139.3,76.3z M168,136.2l-3,19.6h-4.6l-3-19.6h3.1l2.4,16l2.4-16H168z M144.5,144.4v2.8h-4.2v5.7h5.3v2.8
		h-8.4v-19.6h8.4v2.8h-5.3v5.5H144.5z M137.2,50.3c0-0.1,0-0.1,0-0.2c0-0.1-0.1-0.3,0.1-0.3c0.2,0,0.3,0.2,0.3,0.4c0.1,1,0,2,0.1,3
		c0,0.8,0,1.7,0,2.5c0,0.8,0,1.6,0,2.5c0,0.5,0,0.9,0,1.4c0,0.2,0,0.4,0.1,0.6c0.3-0.4,0.2-0.9,0.2-1.3c0-1.4,0-2.8,0-4.2
		c0-0.4-0.1-0.8-0.1-1.3c0-0.3,0.2-0.5,0.5-0.5c0.2-0.1,0.5,0.2,0.5,0.5c0,1.1,0,2.2,0,3.3c0,1.1,0,2.2,0,3.4c0.1,2.5,0,5,0,7.4
		c0,1.7,0.1,3.4,0.1,5.1c0,8.4,0,16.9,0,25.3c0,1.6,0,3.2,0,4.7c0,0.3-0.1,0.6-0.4,0.8c-0.2,0.1-0.2,0.3-0.2,0.5c0,2,0,3.9,0,5.9
		c0,0.7-0.1,1.3-0.2,1.9c0,0.6,0,1.2,0,1.8c0,0.6,0,1.1,0,1.7c0,0.2-0.2,0.4-0.3,0.4c-0.2,0-0.4-0.2-0.4-0.4c0-0.5,0-0.9,0-1.4
		c0-1,0-2-0.2-3.1c-0.1-0.7,0-1.4,0-2.1c0-1.1,0-2.2,0-3.3c0-1.5,0-3,0-4.4c-0.3-7.4-0.1-14.8-0.1-22.3
		C137.1,69.2,137.2,59.8,137.2,50.3z M133.3,373H83.9v-10.7l22.8-23.9c5.6-6.4,8.4-11.5,8.4-15.2c0-3-0.7-5.4-2-7
		c-1.3-1.6-3.3-2.4-5.8-2.4c-2.5,0-4.5,1.1-6.1,3.2c-1.6,2.1-2.3,4.8-2.3,8H82.4c0-4.3,1.1-8.4,3.3-12c2.2-3.7,5.2-6.6,9.1-8.6
		c3.9-2.1,8.2-3.1,12.9-3.1c7.7,0,13.6,1.8,17.7,5.3c4.1,3.5,6.2,8.6,6.2,15.2c0,2.8-0.5,5.5-1.6,8.2c-1,2.6-2.7,5.4-4.8,8.3
		s-5.7,6.8-10.6,11.7l-9.2,10.6h27.9V373z M98.5,251.7h4.4l2.9,15.1l3.5-15.1h3.7l3.5,15.2l2.9-15.2h4.4L119,273h-4.4l-3.5-14.3
		l-3.5,14.3h-4.4L98.5,251.7z M137.7,271.1c-1.4,1.5-3.2,2.2-5.5,2.2s-4.1-0.7-5.5-2.2c-1.4-1.5-2-3.5-2-6v-0.2c0-1.6,0.3-3,0.9-4.2
		c0.6-1.2,1.5-2.2,2.6-2.9s2.5-1,4-1c2.1,0,3.9,0.7,5.2,2c1.4,1.3,2.1,3.1,2.3,5.3l0,1.1C139.7,267.7,139,269.6,137.7,271.1z
		 M190.8,344c0,9.6-2.2,17-6.5,22.1c-4.3,5.2-10.4,7.8-18.2,7.8c-7.9,0-14-2.6-18.3-7.8c-4.3-5.2-6.5-12.6-6.5-22.1v-12.9
		c0-9.6,2.1-17,6.4-22.1c4.3-5.2,10.4-7.8,18.2-7.8c7.9,0,13.9,2.6,18.3,7.8c4.3,5.2,6.5,12.6,6.5,22.1V344z M142.3,273v-15.8h4
		l0.1,1.9c0.8-1.5,2-2.2,3.5-2.2c0.5,0,0.9,0.1,1.3,0.2l-0.1,4.1c-0.6-0.1-1.1-0.1-1.5-0.1c-1.6,0-2.7,0.5-3.1,1.6V273H142.3z
		 M158.3,261.9l4.1-4.8h5.1l-5.7,6.6l6.2,9.2h-4.9l-4.1-6.4l-1.5,1.5v4.8h-4.2v-22.5h4.2V263L158.3,261.9z M173.4,254.6
		c-0.4,0.4-1,0.6-1.7,0.6c-0.7,0-1.3-0.2-1.7-0.6s-0.7-0.9-0.7-1.6c0-0.6,0.2-1.2,0.6-1.6c0.4-0.4,1-0.6,1.7-0.6
		c0.7,0,1.3,0.2,1.7,0.6c0.4,0.4,0.6,0.9,0.6,1.6C174,253.7,173.8,254.2,173.4,254.6z M173.8,257.2V273h-4.2v-15.8H173.8z
		 M190.8,273h-4.2v-10.1c0-0.9-0.2-1.5-0.6-2c-0.4-0.4-1-0.6-1.9-0.6c-1.2,0-2.1,0.5-2.7,1.5V273h-4.2v-15.8h4l0.1,1.8
		c1.1-1.4,2.6-2.1,4.6-2.1c1.7,0,2.9,0.5,3.7,1.5s1.2,2.5,1.3,4.4V273z M196.9,278.5c-1.1-0.5-1.9-1.1-2.5-1.8l1.9-2.6
		c1.1,1.2,2.3,1.8,3.8,1.8c1.1,0,2-0.3,2.6-0.9c0.6-0.6,0.9-1.5,0.9-2.6v-0.8c-1,1.1-2.3,1.7-3.9,1.7c-1.9,0-3.4-0.7-4.6-2.2
		c-1.2-1.5-1.8-3.5-1.8-5.9V265c0-2.4,0.6-4.4,1.7-5.9c1.2-1.5,2.7-2.2,4.7-2.2c1.7,0,3.1,0.6,4.1,1.8l0.2-1.5h3.8v15.3
		c0,1.4-0.3,2.6-0.9,3.6c-0.6,1-1.5,1.8-2.7,2.3c-1.1,0.5-2.5,0.8-4,0.8C199.1,279.2,198,279,196.9,278.5z M235.7,373h-16.5v-52.4
		l-16.2,4.7v-12.5l31.1-10.8h1.5V373z M229.1,265.5c-0.6-0.4-1.6-0.9-3.2-1.4s-2.7-1-3.6-1.5c-2.4-1.3-3.6-3.1-3.6-5.3
		c0-1.2,0.3-2.2,1-3.1c0.6-0.9,1.6-1.6,2.8-2.1c1.2-0.5,2.6-0.8,4.1-0.8c1.5,0,2.9,0.3,4.1,0.8s2.1,1.3,2.8,2.3c0.7,1,1,2.1,1,3.4
		H230c0-1-0.3-1.7-0.9-2.3c-0.6-0.5-1.5-0.8-2.6-0.8c-1.1,0-1.9,0.2-2.5,0.7c-0.6,0.5-0.9,1.1-0.9,1.8c0,0.7,0.3,1.3,1,1.7
		c0.7,0.5,1.7,0.9,3.1,1.3c2.5,0.8,4.3,1.7,5.5,2.8c1.1,1.1,1.7,2.5,1.7,4.2c0,1.8-0.7,3.3-2.1,4.3c-1.4,1-3.3,1.6-5.6,1.6
		c-1.6,0-3.1-0.3-4.5-0.9s-2.4-1.4-3.1-2.5c-0.7-1-1.1-2.3-1.1-3.6h4.4c0,2.4,1.4,3.5,4.2,3.5c1,0,1.9-0.2,2.4-0.6
		c0.6-0.4,0.9-1,0.9-1.8C230,266.6,229.7,265.9,229.1,265.5z M241.5,273h-4.2v-15.8h4.2V273z M241.1,254.6c-0.4,0.4-1,0.6-1.7,0.6
		c-0.7,0-1.3-0.2-1.7-0.6s-0.7-0.9-0.7-1.6c0-0.6,0.2-1.2,0.6-1.6c0.4-0.4,1-0.6,1.7-0.6c0.7,0,1.3,0.2,1.7,0.6
		c0.4,0.4,0.6,0.9,0.6,1.6C241.8,253.7,241.6,254.2,241.1,254.6z M253.8,260.9c-0.4-0.4-1-0.6-1.9-0.6c-1.2,0-2.1,0.5-2.7,1.5V273
		h-4.2v-15.8h4l0.1,1.8c1.1-1.4,2.6-2.1,4.6-2.1c1.7,0,2.9,0.5,3.7,1.5s1.2,2.5,1.3,4.4V273h-4.2v-10.1
		C254.4,262,254.2,261.3,253.8,260.9z M307.6,358h-7.2v15H284v-15h-27.4l-1-10l28.4-45.7v-0.1h16.4v43.2h7.2V358z M266.1,268.8
		c0.5,0.7,1.3,1.1,2.3,1.1c0.8,0,1.4-0.2,1.9-0.6c0.5-0.4,0.7-1,0.8-1.7h4c0,1.1-0.3,2.1-0.9,3c-0.6,0.9-1.4,1.6-2.4,2.1
		c-1,0.5-2.1,0.7-3.3,0.7c-2.3,0-4.1-0.7-5.4-2.2c-1.3-1.4-2-3.4-2-6v-0.3c0-2.4,0.6-4.4,1.9-5.8c1.3-1.5,3.1-2.2,5.3-2.2
		c2,0,3.6,0.6,4.8,1.7c1.2,1.1,1.8,2.6,1.8,4.5h-4c0-0.8-0.3-1.5-0.8-2c-0.5-0.5-1.1-0.8-1.9-0.8c-1,0-1.7,0.4-2.2,1.1
		s-0.8,1.9-0.8,3.5v0.4C265.4,266.9,265.6,268.1,266.1,268.8z M282.4,268.9c0.7,0.6,1.6,0.9,2.6,0.9c1.6,0,2.9-0.6,3.8-1.8l2.1,2.3
		c-0.6,0.9-1.5,1.6-2.6,2.1c-1.1,0.5-2.3,0.8-3.6,0.8c-2.3,0-4.2-0.7-5.7-2.1c-1.5-1.4-2.2-3.3-2.2-5.7V265c0-1.6,0.3-3,0.9-4.3
		c0.6-1.3,1.5-2.2,2.6-2.9c1.1-0.7,2.4-1,3.9-1c2.2,0,3.9,0.7,5.1,2.1c1.2,1.4,1.9,3.3,1.9,5.8v1.7h-10.1
		C281.3,267.5,281.7,268.3,282.4,268.9z M345,205H45v-2h300V205z"/>
	<path class="st0" d="M284.2,260.3c-0.8,0-1.5,0.3-2,0.9c-0.5,0.6-0.9,1.4-1,2.4h5.9v-0.3c0-0.9-0.3-1.7-0.8-2.2
		C285.8,260.5,285.1,260.3,284.2,260.3z"/>
	<polygon class="st0" points="271.2,345.3 284,345.3 284,323.5 283,325.2 	"/>
</g>
</svg>
